<svg xmlns="http://www.w3.org/2000/svg" xmlns:xlink="http://www.w3.org/1999/xlink" x="0" y="0" width="701.3333129882812" height="301.3333435058594" style="
        width:701.3333129882812px;
        height:301.3333435058594px;
        background: transparent;
        fill: none;
">
        
        
        <svg xmlns="http://www.w3.org/2000/svg" class="role-diagram-draw-area" style="overflow: visible;"><g class="shapes-region" style="stroke: black; fill: none;"><g class="composite-shape axis2d" style="stroke-width: 1px; stroke: rgb(0, 0, 0);"><path class="real" d=" M256,250.4 L518.67,250.4 M282.27,14 L282.27,276.67"/><path d=" M511.67,245.4 L518.67,250.4 L511.67,255.4"/><path d=" M277.27,21 L282.27,14 L287.27,21"/></g><g class="arrow-line"><defs><!-- react-text: 12361 --> <!-- /react-text --><pattern id="_pgf91blpm2cddg-full-view" x="12.45" y="12.45" width="24.9" height="24.9" patternUnits="userSpaceOnUse"><path d="M0,0 L0,24.9" style="stroke: rgb(65, 117, 5); stroke-opacity: 1; stroke-width: 1px; fill: none;"/><path d="M24.9,0 L24.9,24.9" style="stroke: rgb(65, 117, 5); stroke-opacity: 1; stroke-width: 1px; fill: none;"/></pattern></defs><path class="connection real" stroke-dasharray="" d="  M109,152 L555.67,78.83 L549.67,186.83 L107.67,256.83" style="stroke: rgb(65, 117, 5); stroke-opacity: 1; stroke-width: 1px; fill: url(&quot;#_pgf91blpm2cddg-full-view&quot;); fill-opacity: 1;"/></g><g class="arrow-line"><path class="connection real" stroke-dasharray="6 6" d="  M676.67,58.83 L555.67,78.83" style="stroke: rgb(0, 0, 0); stroke-width: 1px; fill: none; fill-opacity: 1;"/></g><g class="arrow-line"><path class="connection real" stroke-dasharray="6 6" d="  M115.67,150.83 L-5.33,170.83" style="stroke: rgb(0, 0, 0); stroke-width: 1px; fill: none; fill-opacity: 1;"/></g><g class="arrow-line"><path class="connection real" stroke-dasharray="6 6" d="  M670.67,166.83 L549.67,186.83" style="stroke: rgb(0, 0, 0); stroke-width: 1px; fill: none; fill-opacity: 1;"/></g><g class="arrow-line"><path class="connection real" stroke-dasharray="6 6" d="  M107.67,256.83 L-13.33,276.83" style="stroke: rgb(0, 0, 0); stroke-width: 1px; fill: none; fill-opacity: 1;"/></g><g/></g><g/><g/><g/></svg>
        <svg xmlns="http://www.w3.org/2000/svg" xmlns:xlink="http://www.w3.org/1999/xlink" width="700" height="300" style="width:700px;height:300px;font-family:Asana-Math, Asana;background:transparent;"></svg>
</svg>
