<svg xmlns="http://www.w3.org/2000/svg" xmlns:xlink="http://www.w3.org/1999/xlink" x="0" y="0" width="701.3333129882812" height="301.33331298828125" style="
        width:701.3333129882812px;
        height:301.33331298828125px;
        background: transparent;
        fill: none;
">
        
        
        <svg xmlns="http://www.w3.org/2000/svg" class="role-diagram-draw-area" style="overflow: visible;"><g class="shapes-region" style="stroke: black; fill: none; --darkreader-inline-stroke: #ffffff; --darkreader-inline-fill: none;" data-darkreader-inline-stroke="" data-darkreader-inline-fill=""><g class="composite-shape"><path class="real" d=" M173.17,146.92 C173.17,86.21 222.38,37 283.08,37 C343.79,37 393,86.21 393,146.92 C393,207.62 343.79,256.83 283.08,256.83 C222.38,256.83 173.17,207.62 173.17,146.92 Z" style="stroke-width: 1px; stroke: rgb(0, 0, 0); fill: none; fill-opacity: 1; --darkreader-inline-stroke: #ffffff; --darkreader-inline-fill: none;" data-darkreader-inline-stroke="" data-darkreader-inline-fill=""/></g><g class="composite-shape"><path class="real" d=" M314.17,148.92 C314.17,88.21 363.38,39 424.08,39 C484.79,39 534,88.21 534,148.92 C534,209.62 484.79,258.83 424.08,258.83 C363.38,258.83 314.17,209.62 314.17,148.92 Z" style="stroke-width: 1px; stroke: rgb(0, 0, 0); fill: none; fill-opacity: 1; --darkreader-inline-stroke: #ffffff; --darkreader-inline-fill: none;" data-darkreader-inline-stroke="" data-darkreader-inline-fill=""/></g><g class="composite-shape"><defs><!-- react-text: 15668 --> <!-- /react-text --><pattern id="_pgfdr9ivkrpodg-full-view" x="0" y="0" width="11.313708498984761" height="11.313708498984761" patternTransform="rotate(-45,0,0)" patternUnits="userSpaceOnUse"><path d="M0,0 L0,11.313708498984761" style="stroke: rgb(126, 211, 33); stroke-opacity: 1; stroke-width: 1px; fill: none; --darkreader-inline-stroke: #d5ff62; --darkreader-inline-fill: none;" data-darkreader-inline-stroke="" data-darkreader-inline-fill=""/><path d="M5.656854249492381,0 L5.656854249492381,11.313708498984761" style="stroke: rgb(126, 211, 33); stroke-opacity: 1; stroke-width: 1px; fill: none; --darkreader-inline-stroke: #d5ff62; --darkreader-inline-fill: none;" data-darkreader-inline-stroke="" data-darkreader-inline-fill=""/><path d="M11.313708498984761,0 L11.313708498984761,11.313708498984761" style="stroke: rgb(126, 211, 33); stroke-opacity: 1; stroke-width: 1px; fill: none; --darkreader-inline-stroke: #d5ff62; --darkreader-inline-fill: none;" data-darkreader-inline-stroke="" data-darkreader-inline-fill=""/></pattern></defs><path class="real" d=" M393,146.92 C393,181.35 377.17,212.08 352.39,232.24 C328.98,212.08 314.17,182.23 314.17,148.92 C314.17,114.49 330,83.75 354.78,63.6 C378.18,83.76 393,113.61 393,146.92 Z" style="stroke-width: 1px; stroke: rgb(0, 0, 0); fill: url(&quot;#_pgfdr9ivkrpodg-full-view&quot;); fill-opacity: 1; --darkreader-inline-stroke: #ffffff; --darkreader-inline-fill: none;" data-darkreader-inline-stroke=""/></g><g/></g><g/><g/><g/></svg>
        <svg xmlns="http://www.w3.org/2000/svg" xmlns:xlink="http://www.w3.org/1999/xlink" width="700" height="300" style="width:700px;height:300px;font-family:Asana-Math, Asana;background:transparent;"><g><g><g><text x="214.6666259765625" y="117.83332824707031" style="white-space:pre;stroke:none;fill:rgb(255,255,255);fill-opacity:1;font-size:15px;font-family:Arial, Helvetica, sans-serif;font-weight:400;font-style:normal;dominant-baseline:text-before-edge;text-decoration:rgb(255, 255, 255);">TABLE A</text></g></g></g><g><g><g><text x="445.6666259765625" y="123.83332824707031" style="white-space:pre;stroke:none;fill:rgb(255,255,255);fill-opacity:1;font-size:15px;font-family:Arial, Helvetica, sans-serif;font-weight:400;font-style:normal;dominant-baseline:text-before-edge;text-decoration:rgb(255, 255, 255);">TABLE B</text></g></g></g></svg>
</svg>
